#!OML:ASF F:\VICON\USERDATA\INSTALL\rory3\rory3.ASF
:FULLY-SPECIFIED
:DEGREES
260
root -1.99501 18.0293 12.0454 188.41 -70.6604 168.255
lowerback 8.38243 -4.3162 -4.56566
upperback 0.112195 -6.10921 3.01978
thorax -3.76076 -2.95272 6.38638
lowerneck 6.04777 -16.46 -15.1642
upperneck 32.3379 -34.4525 12.2017
head 15.4946 -17.2574 2.06678
rclavicle 3.19049e-014 -1.11319e-014
rhumerus -34.5971 -19.326 -74.1767
rradius 35.4249
rwrist 3.44879
rhand -16.3036 6.52333
rfingers 7.12502
rthumb 9.9073 -23.2235
lclavicle 3.19049e-014 -1.11319e-014
lhumerus -33.6762 5.69411 80.4358
lradius 21.1893
lwrist -10.9875
lhand -18.9914 28.1796
lfingers 7.12502
lthumb 7.31347 58.0332
rfemur -2.32253 10.781 17.8028
rtibia 49.5344
rfoot 3.65162 20.8903
rtoes 4.51661
lfemur -5.15394 -3.52346 -19.3327
ltibia 17.8083
lfoot 0.108255 -21.6873
ltoes 5.56548
261
root -1.88672 18.0265 12.0491 188.755 -71.074 168.003
lowerback 8.33644 -4.16402 -4.5089
upperback 0.110375 -5.89819 3.0222
thorax -3.7717 -2.84783 6.33434
lowerneck 5.83698 -16.486 -15.4715
upperneck 32.5023 -34.492 12.2757
head 15.7135 -17.2579 2.06881
rclavicle -4.03533e-014 -4.77083e-015
rhumerus -34.5793 -19.4588 -74.1064
rradius 35.5317
rwrist 3.4095
rhand -16.3969 6.57352
rfingers 7.12502
rthumb 9.81723 -23.1776
lclavicle -4.03533e-014 -4.77083e-015
lhumerus -33.879 5.90505 80.1664
lradius 21.3034
lwrist -10.4531
lhand -19.4804 28.5046
lfingers 7.12502
lthumb 6.84142 58.3741
rfemur -1.35236 10.7336 18.1827
rtibia 47.9449
rfoot 5.2646 20.7569
rtoes 11.1854
lfemur -5.84754 -3.42304 -19.2026
ltibia 18.0309
lfoot 0.365533 -22.1006
ltoes 5.84313
262
root -1.77529 18.0183 12.0561 188.629 -71.4676 168.237
lowerback 8.38314 -4.05785 -4.32488
upperback 0.0750083 -5.73893 3.07006
thorax -3.86974 -2.76706 6.27441
lowerneck 5.58412 -16.4631 -15.5571
upperneck 32.7934 -34.3593 12.0732
head 15.8464 -17.1864 1.99256
rclavicle -6.54995e-014 -1.59028e-015
rhumerus -34.4861 -19.2201 -74.1925
rradius 35.5317
rwrist 3.14409
rhand -16.5051 6.37626
rfingers 7.12502
rthumb 9.71284 -23.3798
lclavicle -6.54995e-014 -1.59028e-015
lhumerus -34.1765 6.50024 79.5419
lradius 21.3551
lwrist -10.1295
lhand -19.5733 28.2876
lfingers 7.12502
lthumb 6.75171 58.1599
rfemur -0.417533 10.6554 18.7033
rtibia 46.3307
rfoot 5.76911 20.632
rtoes 15.5427
lfemur -6.53725 -3.42304 -18.9049
ltibia 18.2753
lfoot 0.791493 -22.3739
ltoes 6.90911
263
root -1.66062 18.0044 12.0627 188.382 -71.7959 168.726
lowerback 8.29777 -3.97996 -4.09834
upperback 0.0140958 -5.60941 3.0506
thorax -3.9267 -2.70258 6.11075
lowerneck 5.63583 -16.4474 -15.4017
upperneck 32.7778 -34.2855 12.0997
head 15.7888 -17.1423 2.01633
rclavicle -2.26118e-014 -3.18055e-015
rhumerus -34.3959 -18.952 -74.5086
rradius 35.4493
rwrist 3.16962
rhand -16.6799 6.0978
rfingers 7.12502
rthumb 9.54416 -23.666
lclavicle -2.26118e-014 -3.18055e-015
lhumerus -34.436 7.26677 78.6354
lradius 21.3342
lwrist -9.88616
lhand -19.4291 27.721
lfingers 7.12502
lthumb 6.89095 57.5889
rfemur 0.341929 10.3953 19.1876
rtibia 44.7424
rfoot 4.50393 20.3419
rtoes 16.9571
lfemur -7.33697 -3.52174 -18.5206
ltibia 18.501
lfoot 0.839812 -22.5356
ltoes 6.80888
264
root -1.53902 17.9885 12.0687 188.053 -72.1695 169.319
lowerback 8.24122 -3.91509 -3.80055
upperback -0.0424731 -5.49287 2.97712
thorax -4.00432 -2.64552 5.85387
lowerneck 5.68425 -16.4273 -15.1441
upperneck 32.7105 -34.2243 12.2152
head 15.7116 -17.0905 2.06068
rclavicle -2.96686e-014 4.77083e-015
rhumerus -34.3898 -18.8876 -74.8537
rradius 35.4041
rwrist 3.35913
rhand -16.7344 6.14345
rfingers 7.12502
rthumb 9.49165 -23.6228
lclavicle -2.96686e-014 4.77083e-015
lhumerus -34.5968 8.13009 77.6284
lradius 21.2155
lwrist -10.1083
lhand -19.4596 27.4482
lfingers 7.12502
lthumb 6.86146 57.317
rfemur 1.02741 9.98939 19.7134
rtibia 43.2335
rfoot 1.49218 19.1757
rtoes 14.8463
lfemur -8.22865 -3.54969 -18.0903
ltibia 18.7499
lfoot 1.01536 -22.8056
ltoes 6.75947
265
root -1.41356 17.9776 12.0758 188.245 -72.6021 169.343
lowerback 8.28682 -3.9103 -3.60985
upperback -0.121103 -5.47009 2.87168
thorax -4.14284 -2.63062 5.64304
lowerneck 5.75577 -16.3418 -15.0832
upperneck 32.6211 -34.0573 12.368
head 15.6489 -17.0128 2.1623
rclavicle -8.15514e-014 -2.38542e-014
rhumerus -34.4164 -18.6595 -75.2105
rradius 35.5066
rwrist 3.27102
rhand -16.6119 6.15254
rfingers 7.12502
rthumb 9.60978 -23.6083
lclavicle -8.15514e-014 -2.38542e-014
lhumerus -34.8836 9.14158 76.5788
lradius 21.2168
lwrist -10.6985
lhand -19.0747 26.8867
lfingers 7.12502
lthumb 7.23304 56.7431
rfemur 1.70025 9.4054 20.0533
rtibia 41.8224
rfoot -1.84139 17.2184
rtoes 16.6915
lfemur -9.15956 -3.76206 -17.8423
ltibia 19.0542
lfoot 1.47575 -22.9531
ltoes 7.81411
266
root -1.28513 17.9689 12.0809 188.631 -73.0234 169.221
lowerback 8.31188 -3.88394 -3.4835
upperback -0.253295 -5.42323 2.77058
thorax -4.32218 -2.60006 5.47184
lowerneck 5.97103 -16.2621 -15.094
upperneck 32.4969 -33.9212 12.532
head 15.5653 -16.9678 2.28656
rclavicle 7.33515e-014 -3.33958e-014
rhumerus -34.4771 -18.3875 -75.5312
rradius 35.5581
rwrist 3.15075
rhand -16.8371 6.27355
rfingers 7.12502
rthumb 9.3925 -23.4972
lclavicle 7.33515e-014 -3.33958e-014
lhumerus -35.2543 9.3755 75.9075
lradius 21.4219
lwrist -10.4202
lhand -17.4973 25.5254
lfingers 7.12502
lthumb 8.75543 55.3238
rfemur 2.19813 8.64108 20.3364
rtibia 40.5021
rfoot -4.56869 15.4219
rtoes 11.3141
lfemur -10.1297 -4.21293 -17.614
ltibia 19.3346
lfoot 2.0069 -22.8114
ltoes 9.11754
267
root -1.15223 17.9606 12.0904 188.109 -73.3616 170.19
lowerback 8.2341 -3.78911 -3.03487
upperback -0.397262 -5.24956 2.75407
thorax -4.4905 -2.51502 5.18787
lowerneck 6.04003 -16.2897 -14.8585
upperneck 32.4738 -33.866 12.4798
head 15.4666 -16.929 2.27419
rclavicle -4.42793e-014 3.97569e-015
rhumerus -34.4211 -18.2127 -75.823
rradius 35.4798
rwrist 3.08893
rhand -17.0856 6.36788
rfingers 7.12502
rthumb 9.15275 -23.4135
lclavicle -4.42793e-014 3.97569e-015
lhumerus -35.5129 9.03079 75.5626
lradius 21.6802
lwrist -9.55463
lhand -17.4155 25.6778
lfingers 7.12502
lthumb 8.8344 55.4729
rfemur 2.33277 8.12467 20.9572
rtibia 39.2586
rfoot -6.26224 14.1828
rtoes 5.7724
lfemur -11.1878 -4.38459 -17.0437
ltibia 19.4763
lfoot 2.34482 -22.8461
ltoes 9.5372
268
root -1.01659 17.9561 12.1048 187.222 -73.6555 171.533
lowerback 8.18256 -3.67368 -2.45701
upperback -0.495702 -5.03675 2.77725
thorax -4.63437 -2.41699 4.86846
lowerneck 5.92687 -16.3738 -14.5922
upperneck 32.5973 -33.8395 12.2423
head 15.4258 -16.8872 2.15945
rclavicle -1.94809e-014 9.54166e-015
rhumerus -34.2363 -18.0641 -76.1357
rradius 35.3313
rwrist 3.03236
rhand -17.3687 6.60391
rfingers 7.12502
rthumb 8.87955 -23.1893
lclavicle -1.94809e-014 9.54166e-015
lhumerus -35.6619 8.87345 75.2332
lradius 21.9386
lwrist -8.85324
lhand -17.5268 25.9717
lfingers 7.12502
lthumb 8.72697 55.7713
rfemur 2.295 7.73954 21.6379
rtibia 38.1048
rfoot -7.4196 13.2548
rtoes 11.7432
lfemur -12.1663 -4.64504 -16.3693
ltibia 19.4677
lfoot 2.55861 -22.7578
ltoes 9.26191
